<?xml version="1.0" encoding="UTF-8" standalone="no"?>
<!-- Created with Inkscape (http://www.inkscape.org/) -->

<svg
   version="1.1"
   id="svg1"
   width="746.08765"
   height="1011.1408"
   viewBox="0 0 746.08765 1011.1408"
   sodipodi:docname="36c.svg"
   inkscape:version="1.3.2 (091e20ef0f, 2023-11-25)"
   xmlns:inkscape="http://www.inkscape.org/namespaces/inkscape"
   xmlns:sodipodi="http://sodipodi.sourceforge.net/DTD/sodipodi-0.dtd"
   xmlns="http://www.w3.org/2000/svg"
   xmlns:svg="http://www.w3.org/2000/svg">
  <defs
     id="defs1" />
  <sodipodi:namedview
     id="namedview1"
     pagecolor="#ffffff"
     bordercolor="#000000"
     borderopacity="0.25"
     inkscape:showpageshadow="2"
     inkscape:pageopacity="0.0"
     inkscape:pagecheckerboard="0"
     inkscape:deskcolor="#d1d1d1"
     showgrid="false"
     inkscape:zoom="0.77702703"
     inkscape:cx="378.36522"
     inkscape:cy="502.55652"
     inkscape:window-width="1920"
     inkscape:window-height="1011"
     inkscape:window-x="0"
     inkscape:window-y="0"
     inkscape:window-maximized="1"
     inkscape:current-layer="layer2" />
  <g
     inkscape:groupmode="layer"
     id="layer2"
     inkscape:label="Layer 1">
    <path
       style="fill:#000000"
       d="M 650.00002,1018.5285 C 602.17551,994.54699 583.54781,983.91252 560.97725,967.70585 537.59448,950.91597 519.7788,935.81442 496.9046,913.39432 l -21.09541,-20.67662 -2.61661,3.30782 c -4.96081,6.27128 -7.81526,13.1329 -8.68438,20.8758 -1.44405,12.86492 -5.17151,14.44852 -13.16993,5.59522 -7.09041,-7.84823 -10.46467,-16.19762 -10.48664,-25.94849 -0.0149,-6.62712 0.88961,-10.0304 4.92363,-18.5249 l 4.94192,-10.40628 -6.91678,-13.4751 c -24.54075,-47.80972 -40.77811,-69.0342 -59.46091,-77.72368 -10.90374,-5.07139 -13.08638,-7.62851 -14.96455,-17.53207 -1.67229,-8.81795 -2.71971,-10.71481 -9.09902,-16.47813 -12.35852,-11.16519 -29.6897,-21.07456 -36.85872,-21.07456 -6.1003,0 -8.52664,3.65533 -10.35298,15.59696 -4.14517,27.10341 -12.50429,47.94708 -23.59098,58.82467 -24.46962,24.00813 -42.37792,38.87876 -46.84323,38.89754 -4.1101,0.0173 -7.75444,2.39994 -17.29667,11.30853 -9.13406,8.52752 -18.4962,14.98878 -23.12864,15.96219 -1.94592,0.4089 -5.00739,1.04719 -6.80327,1.41843 -1.79589,0.37124 -6.71856,3.69689 -10.93927,7.39034 -4.87813,4.26874 -8.66771,6.57315 -10.40143,6.32502 -2.51934,-0.36057 -2.74722,-1.40746 -2.98737,-13.72368 -0.20567,-10.54815 -0.99731,-15.42221 -3.78976,-23.33333 -6.92817,-19.62769 -5.86954,-43.03651 2.89734,-64.06711 2.58306,-6.19642 6.7658,-16.36622 9.29498,-22.59956 3.88458,-9.5738 6.09351,-12.8484 14.22796,-21.09208 12.25304,-12.41757 23.77397,-21.15168 30.17371,-22.87495 2.75675,-0.74232 11.92041,-4.90903 20.36369,-9.25936 8.44328,-4.35033 17.39307,-8.26883 19.88841,-8.70776 2.66951,-0.46958 8.92512,0.26969 15.19787,1.79605 5.86348,1.42676 10.83017,2.42483 11.03707,2.21792 0.59867,-0.59866 -33.26254,-31.03206 -40.97523,-36.82726 -3.84477,-2.88891 -7.73725,-5.25256 -8.64996,-5.25256 -2.79509,0 -5.50257,4.07511 -12.58621,18.94388 -6.00499,12.60463 -7.77914,15.09227 -15.14419,21.23466 -11.29445,9.41947 -28.3229,20.39771 -36.85634,23.76128 -12.08364,4.76292 -45.14847,8.47874 -78.27319,8.79632 -16.199604,0.15532 -30.599604,0.65232 -32,1.10445 -1.400396,0.45214 -4.019332,2.98983 -5.819858,5.63933 -4.466868,6.57304 -8.798613,9.33989 -11.331456,7.23781 -5.536322,-4.59474 -7.266698,-28.31228 -2.979324,-40.83636 3.538939,-10.33778 10.46113,-20.39341 16.288991,-23.66246 6.112043,-3.42846 6.648628,-5.39654 1.628805,-5.97414 -4.856903,-0.55884 -4.743043,-3.66468 0.361364,-9.85722 4.493979,-5.45197 19.132362,-15.61323 27.305304,-18.95403 2.933333,-1.19903 8.633333,-5.67889 12.666664,-9.95524 7.89437,-8.37 5.18897,-7.16865 38,-16.87414 16.00439,-4.73409 33.69796,-5.71736 48.58841,-2.70017 6.07585,1.23112 11.39033,1.89507 11.80996,1.47544 1.0244,-1.0244 -14.03997,-14.9975 -19.02482,-17.64665 -3.41963,-1.81733 -5.3726,-1.88812 -14.31673,-0.51893 -14.35208,2.19705 -49.09392,3.99847 -55.28389,2.86656 -2.85795,-0.52262 -8.77075,-3.62611 -13.3971,-7.03183 -4.554707,-3.35298 -14.995054,-9.83783 -23.20077,-14.41077 -19.19972,-10.69975 -28.138988,-19.17208 -31.110632,-29.48558 -1.712423,-5.94319 -3.563564,-8.80261 -8.852969,-13.67499 -8.16483,-7.52109 -9.877974,-11.42581 -12.417713,-28.30338 -1.090321,-7.24561 -2.914954,-15.79927 -4.05474,-19.00814 -1.139786,-3.20886 -2.085516,-9.50886 -2.101622,-14 -0.01896,-5.28843 -0.977627,-10.25623 -2.720693,-14.09864 -3.82935,-8.44142 -5.527857,-17.14328 -4.515623,-23.13464 0.707385,-4.18698 1.630295,-5.43067 4.867333,-6.55911 3.600302,-1.25507 3.907708,-1.80265 3.115478,-5.54955 -2.725829,-12.892 -3.330655,-19.78709 -2.183532,-24.89256 1.576865,-7.01811 6.110454,-11.9312 11.009611,-11.9312 3.144257,0 4.275895,1.04744 7.053385,6.52855 1.8944,3.73842 5.180529,7.6729 7.689128,9.2062 C 48.909869,404.70935 60.591807,408 67.561035,408 c 7.757447,0 16.182192,3.40285 31.906088,12.88723 7.259747,4.37895 17.399547,9.68917 22.532877,11.80047 13.8611,5.70097 19.46876,10.03676 33.03803,25.54466 13.68434,15.63942 19.84898,24.61337 23.13602,33.67943 1.21405,3.34851 4.62236,11.78821 7.57401,18.75488 l 5.36664,12.66666 -0.19369,22.10285 -0.19369,22.10285 19.63634,18.08443 c 25.50961,23.4935 28.19677,25.68279 29.69027,24.18928 3.88017,-3.88017 -7.05307,-20.38931 -21.90693,-33.07936 -10.22488,-8.73539 -13.11879,-13.68893 -12.0182,-20.57167 0.72974,-4.56351 -0.0329,-7.45276 -4.8704,-18.45287 -8.12597,-18.47763 -9.21509,-24.34476 -9.22749,-49.70884 -0.0136,-27.6958 1.43367,-37.10569 6.93695,-45.10443 4.89666,-7.11705 11.65531,-25.62265 11.68097,-31.98323 0.0226,-5.60492 2.12264,-9.57807 5.06475,-9.58228 1.25754,-0.002 8.68104,6.4482 16.49669,14.33333 7.81565,7.88514 18.01565,17.93661 22.66667,22.33661 5.57154,5.27084 11.14709,12.54859 16.34363,21.33333 4.33798,7.33334 11.12294,17.65918 15.07768,22.94632 3.95475,5.28715 7.75549,11.58319 8.4461,13.9912 1.64915,5.75025 1.56244,32.57406 -0.14347,44.37885 -1.68888,11.68705 -12.54563,48.47148 -16.92665,57.3503 -1.80923,3.66667 -5.62606,9.47431 -8.48186,12.90587 -9.10366,10.93908 -6.76247,17.41689 13.3439,36.92118 16.33367,15.84455 26.79707,23.39779 26.79707,19.34407 0,-4.47601 4.60819,-30.0457 6.02671,-33.44069 3.12091,-7.4694 3.82155,-6.76352 9.4542,9.52483 1.76029,5.0904 4.43088,10.5649 5.93462,12.16557 2.19352,2.33489 2.93928,5.55932 3.77193,16.30863 1.19866,15.47452 2.35946,17.82872 12.60519,25.56432 7.87525,5.94587 12.87402,7.00062 12.87402,2.71645 0,-7.40434 -32.53921,-99.44944 -36.83468,-104.19588 -2.78206,-3.07414 -5.63949,-3.11012 -9.37379,-0.11804 -3.52741,2.82632 -8.44645,10.86085 -8.45321,13.8071 -0.003,1.19354 -0.9351,2.942 -2.07191,3.88546 -1.70275,1.41316 -2.43546,1.34684 -4.15873,-0.37642 -1.58715,-1.58716 -2.09181,-4.95782 -2.09181,-13.97149 0,-14.72583 2.37436,-19.9962 12.4829,-27.70825 7.09941,-5.41632 7.17209,-5.54436 7.60646,-13.40064 0.24121,-4.36264 -0.52438,-21.43207 -1.7013,-37.93207 -1.17693,-16.5 -2.69649,-43.5 -3.3768,-60 -1.20737,-29.28306 -2.99648,-41.21201 -6.34859,-42.32937 -0.87791,-0.29264 -3.56473,2.29536 -5.97071,5.75112 -10.32925,14.83612 -11.99126,16.82815 -13.10829,15.71113 -0.64169,-0.64169 -2.1119,-9.2591 -3.26715,-19.14979 -3.11676,-26.68426 -6.9135,-32.32337 -19.18243,-28.49062 -11.26859,3.52025 -20.66567,4.76227 -29.45054,3.89251 -20.3429,-2.01409 -42.11321,-9.98575 -57.81979,-21.17195 -10.21555,-7.27549 -20.20509,-12.38218 -26.55012,-13.57252 -9.17491,-1.72122 -8.90066,-0.70286 -9.50848,-35.30718 -0.57927,-32.97825 -2.42194,-52.13131 -5.46486,-56.8026 -1.287,-1.97572 -3.74909,-3.0304 -8.34498,-3.57472 -3.58564,-0.42466 -10.00467,-2.31349 -14.26451,-4.1974 -9.01986,-3.98901 -11.42464,-4.17741 -16.936808,-1.32696 -2.231732,1.15407 -4.395819,1.76019 -4.809082,1.34693 -0.413264,-0.41327 0.358294,-3.21223 1.714573,-6.21992 2.729441,-6.05282 10.121967,-12.65849 19.284627,-17.23198 10.62863,-5.30522 18.65929,-12.0759 22.71939,-19.15479 2.15724,-3.76121 3.92789,-7.87592 3.93477,-9.14382 0.007,-1.26789 -1.48749,-6.77368 -3.32082,-12.23509 -3.75821,-11.1955 -4.38462,-23.71626 -1.52602,-30.50247 0.99402,-2.35978 4.59302,-7.69881 7.99777,-11.86451 8.56915,-10.48432 9.21952,-12.76277 8.14986,-28.55142 l -0.91181,-13.45875 10.02225,-0.84719 c 13.05868,-1.10387 15.60439,-2.4067 22.79477,-11.665853 C 196.00742,81.685153 215.33273,72 237.53607,72 h 8.07148 l -0.4827,-16.333333 c -0.40137,-13.581212 -0.98612,-17.359083 -3.47044,-22.420966 -6.44468,-13.131281 -1.78985,-14.157364 11.28186,-2.486907 11.12773,9.934863 25.61073,20.910553 34.08276,25.829013 l 6.35235,3.687878 4.98098,-5.231118 c 2.73954,-2.877114 8.50835,-9.007757 12.81957,-13.623649 5.08286,-5.442062 10.47343,-9.627977 15.33333,-11.906725 C 333.95216,26.022433 334.20486,26 366.09042,26 h 32.09042 l 5.24292,-3.650994 c 2.8836,-2.008046 6.52442,-4.585748 8.0907,-5.728226 2.68916,-1.961532 3.19856,-1.773632 9.14559,3.373482 5.83418,5.049451 16.85253,10.818414 52.4947,27.485076 18.39393,8.601203 22.44624,13.135862 27.5398,30.817895 2.06538,7.169855 4.66871,13.7861 5.78519,14.702767 1.49806,1.229961 10.35889,1.666667 33.81696,1.666667 27.56587,0 31.89298,0.276159 32.58502,2.079597 1.30942,3.412286 -5.60259,9.255226 -19.74304,16.689416 -18.68576,9.82383 -25.44318,18.42339 -18.13867,23.0834 1.65,1.05265 7.03026,3.14086 11.95612,4.64047 11.98818,3.64966 15.84366,5.78809 20.9774,11.6351 5.36759,6.11336 8.12765,12.47013 13.38581,30.82931 4.8764,17.02627 12.27819,33.41308 15.62461,34.59132 3.15307,1.11017 16.39069,10.93549 16.38481,12.16125 -0.003,0.52624 -3.66594,5.1568 -8.14091,10.29014 -11.22335,12.87454 -17.18783,21.97288 -17.18783,26.21865 0,4.6448 -7.42853,18.84272 -15.0148,28.6973 -9.09997,11.8209 -24.79571,26.05083 -33.03972,29.95419 -11.28925,5.34521 -11.53791,5.92856 -8.02994,18.83812 4.21747,15.52057 7.07834,21.37527 12.59635,25.7781 5.47408,4.36778 6.13368,7.71752 1.95954,9.95146 -4.53112,2.42498 -13.13784,0.70367 -25.94673,-5.18924 -20.13788,-9.26471 -25.90568,-8.82418 -27.65447,2.11218 -1.89837,11.87175 -19.41572,27.0502 -40.32712,34.94268 -12.4562,4.70127 -17.12853,8.5162 -32.2884,26.36322 -3.89324,4.58334 -7.85829,8.33334 -8.81123,8.33334 -0.95293,0 -3.9001,-3.26448 -6.54926,-7.2544 -7.64825,-11.51911 -22.72681,-18.44299 -40.50461,-18.5992 -11.24964,-0.0989 -15.89978,2.43952 -18.89742,10.31555 -2.30103,6.04576 -0.82443,8.23035 6.98423,10.333 13.09501,3.52612 19.48873,13.61717 19.51054,30.79302 0.008,6.13535 -0.58596,10.62484 -1.47811,11.17622 -0.85576,0.52889 -3.74065,-1.71013 -6.77041,-5.25464 -6.30308,-7.37397 -10.02425,-7.93171 -14.82824,-2.22249 -4.39965,5.22868 -5.4584,11.87528 -5.22512,32.80207 0.29581,26.53651 5.73091,58.51037 14.41332,84.79138 4.72719,14.30886 7.63813,17.11949 17.73047,17.11949 7.71753,0 8.18177,0.20613 15.47411,6.87093 8.06254,7.3687 12.69701,14.86931 12.69701,20.54933 0,3.29981 -0.3214,3.48541 -5,2.8873 -2.75,-0.35157 -8.44681,-1.43778 -12.65957,-2.41381 -5.24382,-1.21491 -8.09173,-1.34245 -9.02979,-0.40439 -1.8289,1.82889 2.13759,14.48831 11.57421,36.94023 16.12256,38.35932 31.11515,66.18284 31.11515,57.74406 0,-1.23181 1.37466,-2.7623 3.0548,-3.40109 4.71909,-1.79419 6.05147,-4.18334 8.29381,-14.87199 1.14236,-5.44531 4.21135,-15.90057 6.81999,-23.23391 10.01293,-28.14811 10.14253,-28.69544 8.6206,-36.40675 -2.36113,-11.96333 -5.96134,-18.40967 -12.96984,-23.22305 -3.49976,-2.40361 -7.59084,-5.62994 -9.09128,-7.16962 -1.50044,-1.53968 -4.99385,-3.86553 -7.76313,-5.16855 -8.72187,-4.10389 -23.63162,-23.09834 -23.63162,-30.10578 0,-1.95342 -1.82259,-7.08595 -4.0502,-11.40563 -6.80256,-13.19117 -10.92193,-45.98419 -8.0769,-64.29767 1.66772,-10.73515 5.64983,-19.90544 9.18734,-21.15724 4.65045,-1.64563 7.0244,-5.06241 9.65537,-13.89671 3.55405,-11.93384 9.66514,-19.95209 16.98921,-22.29125 6.37901,-2.03733 17.18097,-13.00567 18.42152,-18.70527 1.33661,-6.14092 1.74382,-6.83914 3.98868,-6.83914 2.26383,0 8.06783,5.63052 16.97801,16.47055 2.80117,3.40786 5.71527,6.19611 6.47579,6.19611 2.03741,0 12.38428,8.5174 26.92457,22.16395 l 12.83892,12.04974 -1.36043,24.55983 c -1.9267,34.78267 -4.72081,57.95899 -8.36364,69.37392 -1.72933,5.41891 -7.14863,17.03853 -12.0429,25.82137 -8.51709,15.28406 -10.63314,20.59387 -7.41419,18.60445 3.62849,-2.24253 28.03019,-42.73191 35.72874,-59.28418 L 513.22356,558 511.30767,531.33333 c -2.79461,-38.89715 -2.94598,-37.00545 3.52263,-44.02307 l 5.49696,-5.96349 0.21888,-17.00672 c 0.18941,-14.7172 0.66101,-18.08036 3.50304,-24.98185 2.72476,-6.61668 4.27208,-8.51989 9.08394,-11.17332 4.53759,-2.50218 7.69821,-6.13474 14.52303,-16.69154 4.79778,-7.42134 10.79463,-16.02438 13.32632,-19.11788 6.19531,-7.57011 15.69472,-13.70879 21.21391,-13.70879 2.42322,0 6.37035,-1.19776 8.77141,-2.66169 2.40106,-1.46392 5.49267,-2.66392 6.87025,-2.66666 1.37758,-0.003 8.12205,-2.40499 14.98772,-5.33832 10.98348,-4.69266 13.72678,-5.33333 22.83681,-5.33333 11.88669,0 41.50189,3.24327 49.95173,5.4704 10.04154,2.64665 17.71947,2.81581 29.30126,0.64558 6.21075,-1.16379 13.51434,-2.11598 16.23021,-2.11598 8.78625,0 8.27634,6.03981 -1.59822,18.93078 -9.00419,11.75472 -9.77802,13.57062 -10.03909,23.55815 -0.12716,4.86442 -1.81632,14.8444 -3.75369,22.17773 -1.93737,7.33334 -4.1925,16.25832 -5.0114,19.8333 -0.8189,3.57498 -3.87116,10.50988 -6.7828,15.41089 -3.00884,5.06463 -5.29389,10.63521 -5.29389,12.90566 0,7.52097 -8.48855,17.83847 -27.07392,32.90726 -3.49453,2.83333 -6.6182,6.64436 -7.10355,8.66667 -1.25446,5.22697 -8.65857,14.91137 -18.04274,23.59945 -12.74833,11.80271 -16.61287,13.84622 -31.94692,16.89302 -7.60808,1.51169 -15.33287,3.51266 -17.1662,4.44659 -4.66666,2.37727 -19.91923,5.45932 -43.33334,8.75626 -11,1.5489 -20.0739,2.91325 -20.16422,3.03188 -0.0903,0.11863 -6.47503,9.51569 -14.18824,20.88236 -16.85467,24.83808 -20.58425,31.59661 -18.55557,33.62529 2.36934,2.36934 9.90232,-4.43852 14.57005,-13.16754 6.88128,-12.86854 22.89417,-25.79109 31.95885,-25.79109 2.43767,0 7.98015,-1.44169 12.31662,-3.20376 11.13412,-4.52419 18.7398,-5.92091 40.40721,-7.42042 10.44375,-0.72277 26.32298,-2.03153 35.28717,-2.90835 l 16.29853,-1.59423 17.70147,9.06671 c 30.3227,15.53133 50.36814,30.68523 50.36814,38.07717 0,4.77031 3.96933,9.11516 20.31094,22.23247 8.74932,7.02303 16.22575,13.59757 16.61429,14.61009 1.34627,3.50832 -2.22343,5.4941 -10.86564,6.04439 l -8.53454,0.54344 -9.76253,9.98533 c -7.4455,7.61544 -12.92703,11.69637 -23.09585,17.1946 -7.33334,3.96509 -16.55519,9.23452 -20.49301,11.70983 l -7.15967,4.50056 -15.26315,-0.41891 c -13.28381,-0.36459 -15.42914,-0.12328 -16.54324,1.8608 -1.99803,3.55828 -9.39511,4.2031 -27.28796,2.37876 -14.69784,-1.49858 -16.8634,-1.45028 -19.74906,0.44048 -3.77778,2.47529 -6.28639,1.95412 -20.39022,-4.23608 -5.21189,-2.28752 -12.69461,-4.84209 -16.62826,-5.67684 -13.6886,-2.90479 -24.93349,-10.34095 -45.15211,-29.85869 -13.37859,-12.91483 -18.70177,-15.36788 -25.9179,-11.94361 -14.50579,6.88345 -25.17201,30.36176 -26.99194,59.41419 -1.03402,16.50661 1.1397,28.41259 6.72731,36.84709 4.50561,6.80122 4.86485,10.78931 3.39567,37.69675 l -0.54647,10.00843 13.82845,23.3249 c 14.76172,24.89907 22.46459,35.18671 37.3532,49.8874 l 9.34714,9.22916 9.39758,-4.33163 c 16.16381,-7.45038 35.17941,-7.15429 47.22272,0.73529 5.78613,3.7905 5.40419,4.64297 -3.14909,7.02868 -17.33778,4.83592 -27.3157,17.77534 -20.23678,26.24319 4.02833,4.81871 23.52645,19.98876 32.30288,25.13248 33.1418,19.42388 96.93496,36.61942 136.18044,36.70764 12.41168,0.0279 18.42013,1.49459 18.42013,4.49643 0,3.5045 -3.87994,5.09449 -20.277,8.30948 -21.18861,4.15448 -29.88608,7.91245 -47.96388,20.72415 -8.14561,5.7728 -15.77371,10.4701 -16.95133,10.4385 -1.17762,-0.032 -9.34112,-3.6679 -18.14112,-8.0807 z"
       id="path1"
       transform="translate(-11.113688,-15.468531)" />
    <path
       id="path2"
       style="fill:#008000"
       d="M 258.59416 53.798609 C 257.70495 53.800618 257.20966 54.366303 256.45939 55.392359 C 252.36015 60.99842 255.43252 72.951316 262.37345 78.398218 C 269.59674 84.066699 281.68557 90.733778 284.00041 90.325953 C 285.45553 90.069591 286.11106 87.830163 286.40666 82.10525 L 286.81291 74.236109 L 279.63517 67.450953 C 275.68742 63.719167 269.26053 58.929078 265.35392 56.804468 C 261.53105 54.72539 259.73743 53.796026 258.59416 53.798609 z M 524.17033 106.95681 C 514.23313 106.84672 506.04607 110.86294 501.02189 118.43142 C 497.69268 123.44658 493.14122 135.94317 494.08634 137.47244 C 495.28483 139.41163 503.8849 137.42888 511.16838 133.53494 C 516.92532 130.45711 536.00041 111.74837 536.00041 109.17947 C 536.00041 108.63635 532.63937 107.77277 528.53166 107.25955 C 527.04467 107.07376 525.58993 106.97254 524.17033 106.95681 z M 156.70353 225.27908 C 149.96726 225.29677 140.77887 229.46554 130.97306 237.21658 C 122.17145 244.17385 120.07727 247.78379 123.42033 250.2283 C 127.05846 252.88856 136.69396 252.37457 143.05314 249.18142 C 151.13349 245.12402 161.88955 236.60983 164.06095 232.55252 C 165.74026 229.4147 165.67158 228.878 163.37541 227.199 C 161.60027 225.90099 159.33946 225.27215 156.70353 225.27908 z M 497.71916 335.18728 C 493.01375 335.10873 488.17692 335.96787 487.29533 337.39431 C 485.20106 340.78291 494.33573 348.17927 513.37736 358.5115 C 523.22342 363.85409 525.33244 364.20859 525.33244 360.52127 C 525.33244 353.67993 511.56309 338.03719 503.67033 335.91189 C 501.96963 335.45394 499.85798 335.22299 497.71916 335.18728 z M 300.65861 367.32791 C 300.14503 367.29189 299.50987 367.54959 298.61759 368.02712 C 294.21949 370.38092 284.00041 385.19618 284.00041 389.21853 C 284.00041 393.44539 289.41147 404.81809 293.52384 409.2322 L 296.40861 412.32791 L 298.87541 409.16384 C 300.23201 407.42393 302.31334 402.74572 303.50041 398.76736 C 305.8308 390.95727 305.5031 377.03362 302.83048 370.27908 C 302.03177 368.26047 301.51458 367.38793 300.65861 367.32791 z M 648.00041 374.15798 C 633.43959 374.19088 629.90176 374.6638 620.00041 377.90408 C 603.92866 383.16364 590.96389 389.42969 584.00041 395.30252 C 574.12773 403.62887 572.59995 404.39696 569.6215 402.53689 C 568.19092 401.64348 566.06662 401.27897 564.9008 401.72634 C 561.64021 402.97754 556.13665 412.53648 549.39103 428.6658 C 541.24826 448.13587 540.51168 449.33377 536.68595 449.33377 C 534.91488 449.33377 532.88264 450.3754 532.17033 451.64822 C 531.38474 453.05199 531.17332 463.42817 531.63322 478.02322 C 532.31365 499.61704 532.15629 502.3185 530.10002 504.37478 C 528.83984 505.63496 526.09275 506.6658 523.99455 506.6658 C 521.25483 506.6658 519.92145 507.4794 519.26408 509.55056 C 518.76065 511.13675 519.11054 523.99176 520.04142 538.11697 L 521.73478 563.79861 L 510.86955 580.51541 C 500.66378 596.21842 496.0125 604.27288 478.60978 636.36892 C 474.72264 643.53802 470.89463 649.20387 470.10392 648.96072 C 467.99034 648.31078 457.7108 626.82297 456.72306 620.99002 C 455.96052 616.48692 456.21955 615.85168 459.27189 614.69119 C 461.13942 613.98115 462.75786 612.33447 462.86955 611.03298 C 463.24483 606.66029 463.39935 606.0057 464.45939 604.31228 C 465.04015 603.3845 467.5384 601.7806 470.01017 600.74783 C 472.87834 599.54943 476.25251 596.23814 479.33634 591.59353 C 483.93274 584.67087 484.12558 583.93363 483.28166 576.47439 C 482.73766 571.66602 483.01695 566.31859 484.00627 562.65017 C 484.89365 559.35972 485.7304 550.57766 485.86564 543.1365 C 486.01641 534.84044 486.73901 528.85311 487.73088 527.65798 C 490.26312 524.60681 494.66642 510.7223 494.66642 505.7908 C 494.66642 501.90982 494.22978 501.33377 491.29142 501.33377 C 489.23051 501.33377 487.64532 500.42453 487.22111 498.99978 C 484.01366 488.22722 473.00783 474.13408 466.8383 472.90017 C 464.39797 472.4121 458.43641 467.84429 450.97306 460.74197 L 439.01798 449.36306 L 427.72111 461.08181 C 415.07934 474.19564 410.26956 481.53368 407.89103 491.33377 C 404.73379 504.34237 401.02658 509.33377 394.52384 509.33377 C 390.79378 509.33377 389.0998 514.96929 389.2133 526.99783 C 389.2901 535.14156 390.3425 540.4395 394.18205 552.01345 C 398.81162 565.96889 398.93868 566.82127 396.76213 569.22634 C 394.69136 571.51452 394.66389 572.11958 396.4633 575.5447 C 397.5578 577.62805 401.2488 582.03377 404.66642 585.33377 C 411.76156 592.18468 414.66642 597.02361 414.66642 601.99392 C 414.66642 609.3648 424.96785 615.52216 440.59611 617.49197 C 445.69083 618.13412 450.3527 619.15284 450.95548 619.75564 C 453.22797 622.02813 456.19756 646.15635 455.66252 657.99978 C 455.24056 667.33998 453.90076 673.84236 449.61564 687.33377 C 441.73374 712.14942 440.04219 720.41826 440.01994 734.24587 C 439.99774 748.01399 438.7423 752.70688 434.74259 753.97634 C 431.1867 755.10494 431.29121 757.58516 435.30705 767.33377 C 439.14386 776.64781 439.39343 778.6658 436.70158 778.6658 C 432.74578 778.6658 405.12166 733.88957 392.07463 706.32791 C 380.53284 681.94608 369.13368 651.31934 368.39884 642.71853 C 367.6102 633.48779 369.0838 631.40245 378.56681 628.33767 C 382.54524 627.0519 386.01078 625.35258 386.26798 624.56228 C 387.1135 621.96448 379.5328 619.76141 367.21916 619.02517 L 355.10588 618.30056 L 347.55705 588.15017 C 335.89492 541.57765 334.13786 530.28336 334.06291 501.33377 C 333.98381 470.76988 335.03742 466.24618 343.07853 462.59548 C 349.97274 459.46549 354.89186 459.34812 360.84611 462.17361 C 363.36649 463.36961 365.69082 464.08866 366.01017 463.76931 C 366.32952 463.44996 365.37371 460.72906 363.88713 457.72439 C 359.10171 448.0522 351.20487 447.11741 340.19181 454.9197 C 335.513 458.23446 334.15752 458.67437 333.2133 457.18337 C 331.6432 454.70407 331.68543 453.88081 334.00041 441.78298 C 336.70016 427.67425 336.56635 417.42205 333.63713 413.88064 C 330.57551 410.17918 322.71177 404.84312 321.74455 405.81033 C 321.32199 406.23289 321.73555 437.94814 322.66252 476.28884 C 324.47382 551.21313 324.28467 572.13038 321.78947 572.96072 C 317.84261 574.27414 307.70943 581.99524 305.07072 585.70095 C 302.32539 589.55641 302.3037 589.75425 304.73478 588.75955 C 310.32676 586.47153 321.241 584.00212 327.21134 583.67556 L 333.48088 583.33377 L 340.59806 611.33377 C 348.60496 642.83446 354.54039 660.58844 364.22306 681.99978 C 379.50998 715.80378 381.67433 721.19026 380.8383 723.36892 C 379.714 726.29879 375.5885 725.35056 363.33244 719.34353 C 350.52405 713.06578 336.18476 701.93486 331.0922 694.31814 C 328.70785 690.75193 326.30147 684.91365 325.59806 680.98611 C 321.61384 658.73998 319.94433 651.42182 318.55705 650.12087 C 317.381 649.01802 317.17729 652.61636 317.71134 665.00369 C 318.45891 682.34343 318.00095 686.6658 315.41838 686.6658 C 311.91803 686.6658 277.05342 656.98492 260.66642 640.05447 L 255.33244 634.5447 L 254.88127 619.9158 C 254.44922 605.92983 254.56585 605.17327 257.54728 602.72439 C 259.42841 601.17927 261.81129 600.44042 263.55119 600.86306 C 269.30972 602.26189 272.29535 596.87708 275.85783 578.6658 C 276.64683 574.63246 278.74542 566.50857 280.52189 560.61111 C 284.16786 548.50729 287.26083 522.44852 286.42423 510.88259 C 285.92146 503.93163 285.20246 502.39302 278.94572 494.87478 C 275.13838 490.29983 271.66177 484.93129 271.21916 482.94509 C 269.50082 475.23408 266.28321 468.30137 260.26408 459.33377 C 253.36608 449.0568 249.78533 447.25288 250.3383 454.33377 C 250.7258 459.29568 248.50704 460.1266 246.78361 455.6658 C 242.31137 444.09019 239.86586 440.05972 232.54533 432.20486 L 224.2758 423.33377 L 220.61564 426.6658 C 218.60197 428.49911 214.69143 433.46332 211.92619 437.69509 C 204.97033 448.33995 203.44092 458.37994 204.36173 487.33377 C 205.20958 513.99278 207.52164 526.45066 214.7758 543.42947 C 217.64897 550.15434 220.00041 556.8193 220.00041 558.24002 C 220.00041 561.71387 227.2703 573.57596 236.28361 584.80642 C 247.15778 598.35549 248.39029 601.38295 248.33048 614.3865 C 248.30238 620.49807 247.93331 625.84619 247.50822 626.27127 C 246.53568 627.24379 240.00996 621.84053 217.34611 601.29861 C 198.16934 583.91728 185.09192 573.33377 182.79338 573.33377 C 180.18789 573.33377 179.58111 566.27541 181.31291 556.10134 C 184.711 536.1379 184.74012 536.63003 180.06877 534.69509 C 174.30123 532.30611 173.3446 529.83388 173.25627 517.08767 C 173.21397 510.98947 172.75472 503.59911 172.23478 500.6658 C 171.39412 495.92305 170.69998 495.14055 165.97697 493.59353 C 159.00387 491.30949 153.57188 485.96129 152.51798 480.34353 C 150.84677 471.43514 136.71269 457.33377 129.45548 457.33377 C 127.81165 457.33377 124.42134 455.06556 121.61369 452.08767 C 118.47798 448.76183 113.49441 445.57472 108.00041 443.38259 C 103.23375 441.48069 96.302446 437.9135 92.598063 435.45681 C 81.318484 427.97638 75.202468 425.40001 65.453532 424.01736 C 47.816512 421.51598 33.747333 413.76997 27.006266 402.84939 C 25.360027 400.18246 24.010023 398.72781 24.006266 399.61697 C 23.988516 403.81783 30.063194 416.46735 37.316813 427.33377 C 41.722476 433.93375 45.328939 440.08311 45.330485 440.99978 C 45.332285 442.07972 43.278497 442.6658 39.4965 442.6658 C 32.079701 442.6658 30.031052 444.92381 31.34025 451.65212 C 31.876911 454.41016 32.713047 463.87808 33.199625 472.69314 C 34.123089 489.42293 34.439563 490.46001 43.299235 505.78884 C 45.770003 510.06373 47.022932 514.11624 47.010172 517.78884 C 46.987002 524.45719 49.154645 528.97698 56.986735 538.59939 C 60.239608 542.59583 63.771106 548.03964 64.834391 550.69705 C 68.039871 558.70833 82.022769 568.07706 100.38517 574.51736 C 113.76312 579.20944 116.56269 580.56207 119.98283 583.9822 C 123.98486 587.98425 137.49911 588.70063 156.3715 585.90994 C 175.76056 583.04283 180.33228 583.16258 186.05119 586.69705 C 196.92812 593.41936 226.63879 619.31282 232.90861 627.53298 C 236.01895 631.61086 236.19735 632.37315 234.44767 634.12283 C 233.35926 635.21124 228.79651 637.21334 224.309 638.57205 C 216.35325 640.98084 216.0943 640.98059 213.89689 638.55252 C 212.65742 637.18293 211.12401 636.38448 210.48869 636.77712 C 209.85336 637.16977 209.33244 636.64665 209.33244 635.61502 C 209.33244 634.58337 205.83658 630.40431 201.56291 626.32791 C 194.50588 619.59665 193.08057 618.82604 186.0297 617.94509 C 174.82064 616.54461 159.78917 618.12427 153.59416 621.3533 C 150.70716 622.85808 144.51633 625.19058 139.8383 626.53689 C 127.33912 630.13407 122.71192 632.3687 115.70939 638.18923 C 112.24955 641.06507 103.27526 646.69897 95.766032 650.70877 C 82.066658 658.02397 74.666422 663.19261 74.666422 665.44509 C 74.666422 666.10948 77.395837 667.93603 80.730875 669.50369 C 88.188617 673.00923 88.391277 676.47302 81.15275 676.72439 C 75.530898 676.91962 65.409733 682.45381 61.435954 687.50564 C 58.313072 691.47575 56.600295 697.3313 55.441813 707.99978 C 54.23713 719.09372 55.037155 719.56099 67.838297 715.22634 C 78.020173 711.77863 79.238184 711.64528 87.172282 713.1072 C 91.829565 713.96534 98.478714 714.6658 101.94767 714.6658 C 105.46029 714.6658 109.93583 715.65876 112.04728 716.90603 C 115.76861 719.10427 115.98546 719.05571 123.78752 714.24002 C 132.35606 708.9512 134.66642 708.29827 134.66642 711.1697 C 134.66642 718.04485 146.04262 716.87841 164.82658 708.07595 C 176.78953 702.46994 181.05587 701.5904 183.65861 704.19314 C 186.07325 706.60778 192.81328 703.10067 197.85002 696.81033 C 200.26235 693.79756 204.47721 687.58311 207.21525 682.99978 C 209.9533 678.41647 212.77666 674.6658 213.49064 674.6658 C 214.93539 674.6658 221.30028 661.74598 221.32072 658.77127 C 221.32772 657.72902 220.35005 655.78999 219.14884 654.46267 C 217.27141 652.38811 217.2259 651.73664 218.81681 649.81423 C 221.80478 646.20367 230.86433 642.7263 237.33244 642.70877 C 248.69298 642.67797 263.00641 651.88407 293.33244 678.7283 C 308.67843 692.31236 318.70492 699.99978 321.07658 699.99978 C 321.77133 699.99978 323.0518 700.85915 323.92228 701.90798 C 325.19362 703.43986 324.89934 704.1605 322.42033 705.574 C 320.09308 706.90097 310.97211 707.34561 285.33244 707.38064 L 251.33244 707.42556 L 240.07072 713.04666 C 233.87619 716.13775 227.38584 718.6658 225.64884 718.6658 C 221.36673 718.6658 217.33244 720.98606 217.33244 723.449 C 217.33244 724.5615 212.3385 730.39044 206.23478 736.40212 C 193.78668 748.66255 186.66642 759.82813 186.66642 767.08377 C 186.66642 770.66659 184.84916 774.49516 179.31095 782.58181 C 170.23121 795.83973 168.31204 802.88546 170.38127 815.37283 C 172.06233 825.51785 174.6523 830.2205 179.59416 832.09939 L 183.04923 833.41384 L 182.32267 846.61502 L 181.59416 859.81814 L 188.85002 853.90798 C 193.8717 849.81772 197.34538 847.99978 200.13908 847.99978 C 206.34476 847.99978 208.75121 846.23986 226.78166 828.50564 C 236.01133 819.42761 244.31534 811.99978 245.23478 811.99978 C 246.15421 811.99978 247.99565 813.34443 249.32658 814.98806 L 251.7465 817.97634 L 254.7465 815.32205 C 256.39709 813.86175 262.21884 806.66709 267.684 799.33377 C 273.14917 792.00044 280.39281 783.88494 283.7797 781.30056 C 287.16661 778.71618 291.25015 774.65206 292.85588 772.26931 C 300.91726 760.30702 305.64683 730.74629 300.70548 723.20486 C 297.99353 719.06586 298.30079 718.74889 308.88713 714.73416 C 317.38687 711.51074 327.67962 710.06011 333.84416 711.21658 C 338.94576 712.17365 364.50406 728.68998 375.7465 738.2947 C 384.9358 746.14537 387.15935 749.71018 387.98673 757.92166 C 388.65018 764.50592 388.77706 764.67625 393.33244 765.1033 C 395.89911 765.34392 399.85397 766.95201 402.11955 768.67556 C 405.81914 771.49006 462.2201 853.29871 465.64884 860.824 C 466.85112 863.46272 465.99219 865.80812 459.74064 876.95681 C 451.78006 891.15333 448.67342 899.02389 449.83634 902.05447 C 451.19669 905.59945 453.13625 904.09505 459.60002 894.47439 C 467.0804 883.34059 471.77468 879.3249 475.81486 880.6072 C 477.35584 881.09629 483.07595 886.7102 488.5258 893.08181 C 519.17772 928.91821 610.72828 993.43574 648.00041 1005.4666 C 655.47822 1007.8803 657.13318 1007.7833 665.33244 1004.451 C 672.45261 1001.557 684.00041 994.27884 684.00041 992.68533 C 684.00041 991.90578 676.04909 988.68798 666.33244 985.53494 C 615.24554 968.95721 581.6905 951.52839 556.03166 928.24587 L 547.39494 920.40994 L 552.37541 909.20486 C 555.11436 903.04191 557.35012 896.94913 557.34416 895.6658 C 557.32026 890.51641 546.11351 894.3164 538.66838 901.99783 L 534.24845 906.55837 L 529.10197 902.4822 C 514.57003 890.9727 467.00705 824.22579 459.89884 805.36697 C 455.62372 794.02456 455.37864 791.35833 458.35392 788.50759 C 462.46464 784.56899 464.00041 780.66108 464.00041 774.13455 C 464.00041 769.45841 463.3967 767.77056 461.33244 766.6658 C 459.86577 765.88086 458.66642 764.14801 458.66642 762.81423 C 458.66642 761.48047 457.16577 758.77095 455.33244 756.79275 C 452.27831 753.49729 452.00041 752.16872 452.00431 740.93142 C 452.01331 714.54352 461.26212 680.14043 472.39689 665.07986 C 476.15853 659.99197 484.16812 654.64809 490.00431 653.33181 C 496.85162 651.78749 502.32285 653.77333 508.8383 660.16775 C 511.94003 663.21188 516.7233 666.96888 519.46916 668.51736 C 522.21499 670.06585 527.25499 674.93377 530.66838 679.33377 C 541.61921 693.44987 551.74043 699.11717 556.85783 693.99978 C 557.95783 692.89978 559.93808 691.99978 561.26017 691.99978 C 564.95037 691.99978 574.39873 695.62787 578.7172 698.70291 C 583.65316 702.2176 596.83919 704.92065 614.70158 706.07986 C 629.91011 707.06684 631.26135 706.59816 632.23673 699.99978 C 632.55451 697.85004 633.42824 696.85054 634.69767 697.18337 C 641.52466 698.97343 665.47335 698.74321 673.7133 696.80837 C 687.18661 693.64469 703.33436 686.85858 708.95744 681.99783 C 713.63731 677.95239 713.82885 677.48241 712.2465 674.00955 C 709.98497 669.04604 712.14199 666.78194 723.70744 661.97439 C 728.63451 659.92629 733.12994 657.85102 733.69572 657.36306 C 734.26151 656.8751 729.65012 652.45418 723.44767 647.53884 C 710.68261 637.42274 701.33244 627.43495 701.33244 623.91384 C 701.33244 616.49195 687.02924 607.80205 663.42033 600.88064 C 652.09632 597.56078 646.85968 595.35794 645.26213 593.24002 C 643.09169 590.3626 642.46919 590.28885 626.50822 591.02712 C 610.50288 591.76747 595.45608 594.20728 587.30314 597.38259 C 585.12023 598.23277 578.11301 599.37536 571.73283 599.92166 C 561.39152 600.80713 558.56963 601.68995 545.73283 608.06814 C 535.08218 613.36012 529.42448 617.15509 524.00041 622.64236 C 514.31818 632.43739 506.27306 642.0878 505.06291 645.35916 C 504.20723 647.67224 502.83435 647.99978 494.00041 647.99978 C 486.60076 647.99978 483.72558 647.50398 483.20158 646.13845 C 481.47476 641.63847 508.97512 596.06867 525.76213 575.61306 C 533.72732 565.90718 536.41968 564.95328 558.94963 563.85916 C 576.08512 563.02699 579.53357 562.46566 586.19963 559.41384 C 590.39692 557.49227 598.0511 555.3212 603.20939 554.58962 C 614.37853 553.00557 623.15445 549.1576 634.00041 541.08962 C 641.85388 535.24767 643.30421 533.32029 646.81291 524.04861 C 647.84075 521.33253 654.76133 513.26752 663.61369 504.47244 C 677.85281 490.32545 680.44111 486.58705 677.33244 484.6658 C 674.70215 483.04019 676.1101 480.18097 683.00041 473.14627 C 691.39441 464.57632 696.80084 454.69731 703.21525 436.20486 C 708.65209 420.53074 708.95539 418.38895 705.66642 418.94119 C 699.89828 419.9097 703.03935 407.04498 712.69963 390.1365 C 716.00863 384.3447 718.5549 379.44789 718.35783 379.25564 C 718.16076 379.06338 710.49909 380.34871 701.33244 382.11111 C 680.07904 386.19736 679.21885 386.18038 677.05509 381.6658 C 674.30307 375.92378 667.29628 374.11439 648.00041 374.15798 z M 650.0883 403.29861 C 651.1046 403.60571 650.63251 406.92285 648.12736 413.08572 C 644.69369 421.53279 643.66307 424.34557 643.23478 426.43728 C 643.03536 427.41122 642.42831 429.21122 641.88517 430.43728 C 641.34202 431.66335 640.8241 432.96711 640.73478 433.33377 C 640.64548 433.70044 639.76542 435.50044 638.7797 437.33377 L 636.98869 440.6658 L 640.82658 437.17947 C 642.9383 435.26185 650.36577 429.62772 657.33244 424.65798 C 664.29909 419.68825 673.13099 412.95024 676.95744 409.68533 C 680.78387 406.42039 684.68323 404.04184 685.62345 404.40017 C 688.44378 405.47506 668.14676 424.20822 651.28752 436.08962 C 642.34964 442.38854 636.29851 447.49905 636.97697 448.17752 C 639.12295 450.32348 666.77824 449.83299 673.31486 447.53298 C 680.67283 444.94399 683.47518 446.81939 677.15275 450.10134 C 673.94281 451.76762 667.92472 452.67321 656.00041 453.28103 C 640.28694 454.082 633.33244 453.21422 633.33244 450.45291 C 633.33244 445.46398 617.8668 458.69159 607.76213 472.32205 C 604.04285 477.33906 601.3708 481.81548 601.82463 482.26931 C 602.27847 482.72315 605.20324 482.3154 608.32463 481.36502 C 617.23403 478.6523 651.26071 474.43344 653.78361 475.7283 C 656.75095 477.25127 650.82995 479.42003 641.60197 480.19119 C 621.99619 481.82962 605.69079 485.27443 596.17423 489.78884 C 592.81275 491.38345 569.96381 514.83039 565.059 521.71853 C 562.33148 525.54898 562.30938 525.74307 564.73478 524.65017 C 566.16369 524.00629 571.23374 523.24473 576.00041 522.95681 C 580.76705 522.66888 585.56642 521.65528 586.66642 520.70486 C 591.83824 516.23634 600.43561 513.26804 610.309 512.5408 C 616.00535 512.12123 622.42873 511.22065 624.58244 510.53884 C 626.96748 509.78381 628.97749 509.77765 629.72502 510.52517 C 631.85533 512.65549 626.49924 514.30384 614.66642 515.15994 C 605.42889 515.82828 601.57382 516.84646 593.81486 520.65798 C 586.77842 524.1146 582.55378 525.33377 577.61759 525.33377 C 572.9923 525.33377 569.17791 526.33267 565.21134 528.58572 C 562.06159 530.37483 559.09957 531.60098 558.62931 531.31033 C 558.15904 531.01969 555.15125 533.45619 551.94377 536.72439 C 544.83687 543.96578 542.31577 544.4915 547.43205 537.6658 C 549.49334 534.9158 554.81385 528.23777 559.25627 522.824 C 563.69867 517.41022 568.74123 511.24154 570.46134 509.11697 C 572.54035 506.54914 573.254 504.48557 572.5922 502.96072 C 570.9142 499.09441 570.46568 497.07161 568.684 485.33377 C 567.73785 479.10044 566.58479 472.19978 566.1215 469.99978 C 565.01253 464.73359 566.95951 449.14783 568.66642 449.62673 C 569.43549 449.8425 570.00041 455.35963 570.00041 462.6658 C 570.00041 469.63244 570.38465 475.93246 570.85588 476.6658 C 571.3271 477.39913 572.07075 481.69417 572.50822 486.20877 C 573.24923 493.85599 575.21417 501.33377 576.48283 501.33377 C 576.78517 501.33377 582.77001 495.0646 589.78166 487.40212 L 602.5297 473.47048 L 600.45744 469.31619 C 598.57217 465.53708 598.59251 463.99785 600.68009 452.24783 C 601.94206 445.14482 603.6549 434.95858 604.48673 429.61111 C 605.97325 420.05508 608.25681 416.44155 609.0922 422.32205 C 609.32578 423.96627 608.27513 431.55454 606.75822 439.18337 C 605.2413 446.81222 604.00041 456.79321 604.00041 461.36306 L 604.00041 469.67166 L 618.33244 455.9158 C 626.21575 448.34973 632.89664 441.52277 633.17814 440.74587 C 633.45964 439.969 634.7551 437.08375 636.05705 434.33377 C 637.359 431.58377 637.9075 429.33377 637.2758 429.33377 C 635.57125 429.33377 639.23269 418.20973 643.1215 411.574 C 646.56671 405.69521 649.072 402.99151 650.0883 403.29861 z M 61.146891 449.24392 C 63.464258 449.37898 69.368209 454.22408 79.519938 464.24002 C 87.830312 472.43924 95.045016 478.73252 95.553141 478.22439 C 96.061267 477.71626 95.46981 474.10456 94.238688 470.199 C 91.37231 461.1058 91.283942 458.69722 93.914469 461.38064 C 94.967112 462.45445 98.586592 471.41319 101.95744 481.28884 C 105.32827 491.16448 109.71622 501.96452 111.70939 505.28884 L 115.33244 511.33377 L 115.73869 506.47048 C 115.96176 503.79642 114.6126 496.32595 112.74064 489.86892 C 109.00588 476.98646 109.87087 472.4719 114.60002 480.15603 C 118.37271 486.28608 121.36837 496.37048 122.27775 505.99978 C 123.12474 514.96836 125.7962 520.85701 132.53166 528.59939 L 137.11369 533.86502 L 137.81877 529.26541 C 138.20736 526.73585 138.8722 519.27295 139.29533 512.68142 C 139.78471 505.05793 140.74822 500.01368 141.94181 498.82009 C 143.5548 497.20712 143.73889 498.04902 143.26213 504.80642 C 142.95708 509.12998 142.45151 517.28889 142.13713 522.93923 C 141.82276 528.5896 141.1526 533.88 140.64884 534.69509 C 140.14509 535.51018 139.94287 536.35992 140.19963 536.58377 C 153.05756 547.79337 156.73111 550.6658 158.20744 550.6658 C 160.61533 550.6658 160.54025 542.41857 158.00041 527.99978 C 156.90242 521.76647 156.00336 516.2158 156.00236 515.6658 C 155.99936 513.88554 159.69179 514.60903 160.43009 516.53298 C 161.48429 519.28018 167.08147 569.33377 166.33439 569.33377 C 166.13833 569.33377 161.78171 565.18297 156.6547 560.11111 L 147.33244 550.89041 L 134.00041 550.30642 C 124.93649 549.90952 118.95799 548.93853 115.33244 547.27517 C 112.3991 545.92939 109.60062 544.79238 109.11173 544.74783 C 107.43074 544.59462 106.40145 542.84312 107.2172 541.52322 C 107.71679 540.71486 111.12473 541.45623 115.99064 543.43337 C 121.82529 545.8042 126.47147 546.6658 133.41056 546.6658 L 142.87345 546.6658 L 136.60783 539.33377 C 130.39306 532.0593 130.28274 531.99929 122.8383 531.99002 C 118.71071 531.98502 110.34491 530.78553 104.24845 529.324 C 98.152018 527.86247 91.83505 526.6658 90.211344 526.6658 C 86.476708 526.6658 81.016105 522.92478 82.12736 521.12673 C 82.691985 520.21316 83.408042 520.20826 84.312907 521.11306 C 85.052829 521.85299 86.357633 522.18946 87.213297 521.86111 C 88.068962 521.53276 92.635098 522.49826 97.359782 524.00759 C 102.08447 525.51695 110.4614 527.12232 115.97502 527.574 C 127.46132 528.51498 127.68998 530.10843 114.10002 514.44314 C 109.73367 509.41003 104.85619 505.15871 102.85978 504.64627 C 98.944901 503.64135 99.108225 503.67228 81.332438 500.6365 C 68.816648 498.49903 56.104286 493.20744 54.975016 489.6658 C 54.085879 486.87724 59.53875 487.76357 68.62736 491.88455 C 73.339754 494.02124 80.976579 496.41782 85.598063 497.20877 C 90.219547 497.99971 95.800411 499.03834 98.000407 499.51736 C 101.80908 500.34664 101.89927 500.26752 99.891032 497.86111 C 98.731014 496.4711 93.368065 489.93375 87.973063 483.33377 C 82.578061 476.73377 74.077396 466.98076 69.082438 461.66189 C 64.08748 456.34303 60.000407 451.39301 60.000407 450.66189 C 60.000407 449.67722 60.374436 449.1989 61.146891 449.24392 z M 224.54338 450.6658 C 227.51833 450.6658 230.45142 455.64226 233.58048 465.99978 C 235.1313 471.13311 237.14428 476.42292 238.05314 477.75369 C 238.96201 479.08447 239.45268 481.18381 239.14298 482.4197 C 238.83329 483.65559 239.74863 487.95544 241.17814 491.97439 L 243.77775 499.28103 L 245.47892 495.30642 C 246.41531 493.12081 248.00182 490.34689 249.00236 489.14236 C 250.00291 487.93782 251.2369 485.39991 251.74455 483.50173 C 252.2522 481.60357 253.25151 480.18978 253.96525 480.35916 C 256.33252 480.92097 254.53443 486.61235 249.23478 495.33572 C 241.84847 507.49385 242.00597 519.91076 249.4965 515.9197 C 251.23976 514.99087 253.26707 513.5391 254.00041 512.69314 C 254.73374 511.84717 258.43721 508.62755 262.23088 505.53884 C 267.05569 501.61061 269.42769 500.40724 270.12345 501.53298 C 270.71859 502.49595 269.91858 503.98411 268.13322 505.23806 C 266.49212 506.39068 261.55293 510.45047 257.15666 514.25955 C 252.76037 518.06861 248.35466 520.87345 247.36564 520.49392 C 245.90801 519.93458 245.81569 520.8955 246.87541 525.56814 C 247.59444 528.73858 248.64915 532.23377 249.21916 533.33377 C 251.50466 537.74435 253.60376 549.82551 252.88713 554.43728 L 252.12736 559.33377 L 254.69767 556.22634 C 256.11118 554.51767 257.79485 551.21701 258.43986 548.89236 C 260.73302 540.62779 270.67618 528.77913 272.64494 531.96462 C 273.09583 532.69417 271.40966 535.34442 268.89884 537.85525 C 266.38803 540.36607 263.34798 545.31488 262.14298 548.85134 C 260.938 552.38781 258.21642 557.44092 256.09416 560.08181 C 252.45266 564.61317 252.24794 565.53586 252.45158 576.44314 C 252.65781 587.48997 252.01491 589.92608 249.82853 586.38845 C 248.77673 584.68659 248.50152 580.30524 248.19181 560.35525 L 248.00041 548.0447 L 241.66642 544.87087 C 238.18311 543.12532 233.09176 540.97267 230.35197 540.08572 C 225.10595 538.38743 223.35672 536.78654 224.58048 534.80642 C 224.98619 534.14997 227.54789 534.75062 230.27384 536.14041 C 232.9998 537.53017 236.22977 538.6658 237.45158 538.6658 C 238.6734 538.6658 240.41952 539.5658 241.33244 540.6658 C 243.85596 543.70643 246.66642 543.08509 246.66642 539.48611 C 246.66642 536.21869 242.09151 532.25045 237.25041 531.31814 C 233.62385 530.61973 226.54621 524.95435 221.58048 518.77517 C 213.88506 509.19923 216.5031 509.5222 228.79533 519.6658 C 240.96586 529.70897 244.00041 531.45811 244.00041 528.43142 C 244.00041 524.72351 239.67681 510.22695 237.60588 506.99002 C 236.35717 505.03824 233.79862 503.67998 230.32658 503.12478 C 223.87708 502.09346 215.05058 495.08003 217.33634 492.80252 C 218.41022 491.73252 219.44495 492.17263 221.14884 494.42752 C 223.18104 497.11684 238.27835 503.49917 239.56486 502.21267 C 239.97913 501.7984 237.48069 493.6064 234.5297 485.70291 C 233.9212 484.07318 231.15426 481.79657 228.37931 480.64236 C 220.32835 477.29369 213.02569 471.77332 214.58439 470.21462 C 215.49848 469.30056 216.7026 469.53503 218.30119 470.93728 C 221.48422 473.72936 229.42306 477.68846 230.22697 476.88455 C 230.95745 476.15407 225.69482 456.58025 223.80509 452.99978 C 222.89446 451.27439 223.08568 450.6658 224.54338 450.6658 z M 439.31095 485.4783 C 439.79284 485.3863 440.41801 486.20166 441.13713 488.1072 C 441.80669 489.88151 442.06151 491.82545 441.70548 492.42752 C 440.51925 494.43357 442.8052 505.33252 444.41447 505.34353 C 445.28621 505.34953 448.44887 502.5433 451.44181 499.1072 C 455.06684 494.94546 457.21021 493.38971 457.86369 494.44705 C 458.46621 495.42196 455.8353 499.04576 451.04142 503.83962 L 443.23673 511.64431 L 444.84611 520.82205 C 445.73168 525.86987 446.50302 531.12277 446.56095 532.49587 C 446.64685 534.5317 447.02686 534.6953 448.61564 533.37673 C 449.68724 532.4874 450.96178 530.46247 451.44963 528.87869 C 453.39751 522.55495 462.95186 507.75203 464.24845 509.04861 C 465.56127 510.36144 462.90548 517.03938 459.36173 521.33377 C 458.45402 522.43375 457.0585 525.28253 456.26017 527.66384 C 455.46184 530.04518 453.33276 533.94453 451.5297 536.32986 C 448.44081 540.41629 448.33217 541.12794 449.65275 548.6658 C 450.92409 555.92259 451.18033 556.35742 452.4047 553.33377 C 455.19602 546.44038 464.33796 532.05244 465.47892 532.75759 C 467.37328 533.92837 466.90305 535.68155 463.08048 541.69314 C 455.35894 553.83651 452.05788 562.16813 453.36564 566.21072 C 454.03981 568.29473 454.93226 571.70356 455.35002 573.78494 C 455.97949 576.92108 456.44319 577.29263 458.05509 575.95486 C 459.12487 575.06701 460.00041 573.88203 460.00041 573.32205 C 460.00041 572.76208 462.47783 568.5935 465.50627 564.05837 C 469.17708 558.56127 471.45722 556.25738 472.34611 557.14627 C 473.66992 558.47007 466.00354 571.86427 460.309 578.17752 C 458.42399 580.26731 457.49574 583.98201 456.81291 592.1697 C 455.84868 603.73171 454.87482 606.34101 452.43205 603.89822 C 451.44867 602.91485 451.398 600.71061 452.27189 596.89822 C 453.1448 593.09009 453.0376 588.30598 451.93205 581.74392 C 450.3406 572.29776 450.20451 572.06876 442.82463 566.37087 C 438.70438 563.18971 432.63242 559.01053 429.33244 557.08181 C 421.09695 552.2685 412.82 544.87304 413.47306 542.91384 C 413.96847 541.42762 421.32662 546.19962 443.20158 562.19314 C 446.79549 564.82078 449.40076 566.09586 448.99064 565.02712 C 448.58053 563.95839 447.81949 559.69105 447.30119 555.54275 C 446.7829 551.39445 445.91811 547.99978 445.37931 547.99978 C 444.8405 547.99978 441.7603 546.06414 438.53361 543.699 C 435.30691 541.33386 432.36708 539.36427 432.00041 539.32009 C 428.12166 538.85277 415.62778 528.3481 416.76408 526.50955 C 417.12735 525.92176 419.95381 527.26302 423.04533 529.49197 C 432.08653 536.01055 445.33465 544.02455 445.32658 542.97048 C 445.30298 539.89233 441.9864 530.80279 439.72892 527.62673 C 438.27999 525.58824 432.51826 520.78886 426.92423 516.96072 C 421.33022 513.13257 416.15038 509.58217 415.41447 509.07205 C 414.67856 508.56192 414.48953 507.73137 414.99455 507.22634 C 415.49957 506.72132 420.01969 508.7883 425.03752 511.82009 C 430.05532 514.85191 435.47458 517.33377 437.08048 517.33377 C 440.45916 517.33377 440.70446 514.32522 438.70939 497.33377 C 437.88088 490.27755 438.25081 485.68074 439.31095 485.4783 z M 568.22306 613.3533 C 568.37024 613.3593 568.49565 613.4097 568.59611 613.50759 C 569.07047 613.96981 567.63132 617.05616 565.39689 620.36697 C 563.16245 623.67777 561.31924 627.19949 561.30314 628.19314 C 561.28704 629.18678 560.17007 632.43485 558.81877 635.40994 L 556.36173 640.81814 L 560.23478 640.24978 C 564.17846 639.67097 569.57573 633.91537 571.19572 628.56228 C 572.49964 624.25361 588.8382 613.09461 593.11759 613.58962 C 596.28984 613.95657 595.6569 614.62415 587.16642 619.87087 C 578.50498 625.22326 574.45851 629.55898 571.63908 636.5115 C 570.68156 638.87267 571.08708 638.98114 577.63908 638.10134 C 581.50386 637.58238 585.60496 637.04683 586.75236 636.91189 C 588.76185 636.67556 597.87013 629.43558 607.67423 620.28103 C 613.30548 615.02288 616.92914 612.93406 617.84611 614.41775 C 618.53974 615.54006 610.10015 623.80112 599.95158 631.93337 C 594.28684 636.47264 594.25624 636.54385 597.52384 637.41775 C 599.34475 637.90473 604.81269 638.72915 609.67423 639.24978 L 618.51213 640.19509 L 621.16056 635.00564 C 624.69032 628.08676 633.96045 616.47219 637.43791 614.61111 C 641.94002 612.20165 642.18432 614.4334 637.85197 618.39041 C 635.65314 620.39871 632.70627 623.98129 631.30509 626.3533 C 629.90393 628.7253 628.28852 630.6658 627.7133 630.6658 C 627.13808 630.6658 626.66642 631.49348 626.66642 632.50369 C 626.66642 633.51389 625.76642 635.08686 624.66642 635.99978 C 621.36981 638.73574 622.33913 639.70169 629.00041 640.31814 C 634.79282 640.85418 635.75969 640.50032 640.33244 636.18142 C 644.77668 631.9839 648.97189 630.14261 661.00041 627.11111 C 662.71315 626.67946 664.00041 626.96864 664.00041 627.78298 C 664.00041 629.22054 654.20238 634.06212 648.29533 635.5447 C 646.54283 635.98454 643.68603 637.76728 641.94767 639.50564 L 638.78752 642.6658 L 644.31291 642.6658 C 647.35208 642.6658 653.17488 643.34869 657.25236 644.18337 C 664.27025 645.62001 664.98668 645.51187 670.66642 642.1365 C 673.96642 640.17538 678.76577 637.63271 681.33244 636.48611 C 683.89911 635.3395 687.05437 633.46478 688.3422 632.32009 C 689.63003 631.17539 691.05351 630.60952 691.50627 631.06228 C 693.42739 632.98342 690.23017 636.34235 683.684 639.28103 C 679.82493 641.01342 675.50187 643.31075 674.07853 644.38455 C 671.65825 646.21044 671.94156 646.43273 678.43791 647.82595 C 686.33232 649.519 696.59056 650.77579 705.22502 651.1072 C 708.93547 651.24961 711.34603 652.02541 711.73673 653.20291 C 712.25635 654.76888 709.51347 654.94777 694.84611 654.30837 C 685.21446 653.88851 677.33244 653.76058 677.33244 654.02322 C 677.33244 654.28586 680.03244 656.44044 683.33244 658.81033 C 689.2056 663.0281 690.80521 665.33377 687.85783 665.33377 C 686.45738 665.33377 678.37486 659.45128 672.7133 654.31228 C 668.64724 650.62154 657.86127 647.94523 644.24845 647.25173 L 631.82853 646.61892 L 635.24845 651.1033 C 637.12893 653.56872 638.66642 656.29515 638.66642 657.16189 C 638.66642 658.02864 641.38221 661.4519 644.70158 664.77127 C 648.02096 668.09063 650.35388 671.42694 649.88517 672.18533 C 648.63702 674.20489 640.76556 666.09715 633.94963 655.76931 C 630.71995 650.87556 627.01027 646.56744 625.70548 646.19705 C 624.40071 645.82667 618.23372 645.10598 612.00041 644.59548 L 600.66642 643.66775 L 607.00041 650.44314 C 616.99591 661.13664 615.20641 663.80395 604.47697 654.20486 C 600.91433 651.01753 596.79911 647.79621 595.33244 647.04666 C 591.53401 645.10544 576.00041 643.57367 576.00041 645.14041 C 576.00041 645.84075 580.21547 649.53972 585.36759 653.35916 C 594.77105 660.33023 598.38112 664.52808 596.1547 665.90408 C 595.50247 666.30718 594.19819 665.70894 593.25627 664.574 C 592.31435 663.43906 586.44892 658.57893 580.22306 653.77322 C 569.41766 645.43256 568.63428 645.06437 562.96916 645.70291 C 559.38773 646.10659 555.90866 647.49973 554.19377 649.21462 C 551.54952 651.85887 551.49181 652.30949 553.37736 655.69509 C 555.20739 658.98102 558.82775 661.73623 572.17228 669.99978 C 574.54075 671.46645 576.72195 673.41711 577.01798 674.33377 C 577.94134 677.1928 572.89947 676.06473 567.83439 672.27908 C 565.17635 670.29245 559.30904 665.52989 554.79728 661.69509 C 542.91483 651.59554 542.7727 651.54407 530.33048 653.21853 C 517.30461 654.97155 517.33244 654.9729 517.33244 653.42947 C 517.33244 650.56158 521.66023 648.36148 531.90666 646.02127 C 537.89681 644.65315 543.10296 643.03854 543.47697 642.43337 C 543.85099 641.82822 545.35059 641.33377 546.809 641.33377 C 550.61974 641.33377 555.39301 635.5933 557.32658 628.68728 C 558.89928 623.07015 566.01535 613.26629 568.22306 613.3533 z M 144.66056 634.00173 C 150.23117 634.14355 160.79774 637.75605 168.33634 642.44314 L 173.3383 645.55447 L 185.67033 642.58767 C 198.71414 639.44928 204.71147 639.15869 207.56291 641.52517 C 210.31443 643.80875 208.21155 645.45653 203.07267 645.0447 C 198.39405 644.66976 198.3451 644.72179 196.50236 651.99978 C 195.48115 656.03311 194.11331 660.53311 193.4633 661.99978 C 192.81329 663.46645 191.23072 667.66711 189.94572 671.33377 C 186.50501 681.15156 180.68247 692.31298 177.50627 695.18142 C 172.54932 699.65804 172.68797 694.39496 177.73478 686.48806 C 184.83536 675.3635 188.77037 666.86211 191.809 656.07986 C 193.34659 650.62389 194.4499 646.00396 194.26017 645.81423 C 193.78055 645.33461 173.10734 649.94123 162.85978 652.81033 C 157.91646 654.19436 154.11923 656.04679 153.7465 657.25759 C 152.2656 662.06815 145.64304 678.53308 143.93595 681.64822 C 143.23814 682.92161 142.66642 684.61187 142.66642 685.40408 C 142.66642 686.1963 141.16577 688.81101 139.33244 691.21462 C 137.4991 693.61824 136.00041 696.27929 136.00041 697.12673 C 136.00041 697.97418 135.39975 698.6658 134.66642 698.6658 C 132.69706 698.6658 133.04613 692.56531 135.11369 690.84939 C 137.61984 688.76947 145.2983 672.58602 146.25822 667.36111 C 146.52479 665.91012 147.32517 664.14182 148.03752 663.42947 C 148.74987 662.71712 149.33244 661.65285 149.33244 661.06619 C 149.33244 659.06479 145.71257 659.99629 140.9672 663.21658 C 134.83091 667.38077 116.00041 677.47707 116.00041 676.6033 C 116.00041 676.23369 114.29913 676.8109 112.21916 677.8865 C 107.53927 680.30657 102.0803 687.34996 100.76994 692.65994 C 99.32909 698.49862 97.550598 700.21057 94.576579 698.61892 C 91.477284 696.96022 92.368011 694.10578 97.787516 688.33377 C 100.02529 685.95044 101.39243 683.99978 100.82463 683.99978 C 100.25681 683.99978 95.487602 686.07109 90.226969 688.60134 C 82.785611 692.18049 78.793782 695.28858 72.2465 702.60134 C 64.346839 711.42459 58.666422 714.60063 58.666422 710.19509 C 58.666422 708.03643 62.906321 703.46749 69.982829 697.99978 C 72.830147 695.79978 77.456265 691.83648 80.264079 689.19119 C 84.97714 684.7509 92.763182 680.37797 108.00041 673.61502 C 116.60141 669.79751 128.60049 661.45664 126.45744 660.78494 C 125.47206 660.4761 119.31965 659.89449 112.78361 659.49392 C 102.2385 658.84765 96.925254 657.29564 98.809 655.41189 C 99.701747 654.51914 125.26967 657.16176 129.53556 658.58767 C 132.27267 659.50257 134.53127 659.029 139.53556 656.49197 C 143.09094 654.6895 150.1991 651.9913 155.33244 650.49587 C 160.46575 649.00046 165.55648 647.49272 166.64494 647.14431 C 167.99946 646.71073 167.36836 645.94765 164.64494 644.72634 C 162.45648 643.74494 157.96642 641.73204 154.66642 640.25369 C 151.36644 638.77533 146.6162 637.14465 144.10978 636.62869 C 140.49317 635.88417 139.99502 635.44201 141.69963 634.48806 C 142.35439 634.12163 143.37504 633.96901 144.66056 634.00173 z M 277.5883 722.68337 C 279.47044 722.64967 280.08052 725.3582 278.75041 727.84353 C 277.74406 729.72391 278.08363 733.17323 280.02189 740.75173 C 281.4766 746.43959 282.61687 753.24795 282.55705 755.88064 L 282.44963 760.6658 L 280.41642 755.99978 C 279.29844 753.43311 277.74886 747.73375 276.97306 743.33377 C 276.19725 738.93377 275.09257 734.79471 274.51798 734.1365 C 273.93517 733.46887 270.61865 735.11762 267.01603 737.86502 C 260.6121 742.7487 260.56455 742.84255 261.2797 749.06228 C 262.18544 756.93972 260.35158 782.99392 258.60978 786.99978 C 257.73049 789.02203 257.56947 782.93793 258.11564 768.33377 C 258.96226 745.69619 258.40628 743.38754 253.72892 750.11111 C 252.41135 752.00508 249.63624 755.58772 247.56095 758.074 C 243.99634 762.34456 243.82382 763.13058 244.45548 772.29666 C 244.82324 777.63306 245.53698 784.24978 246.04142 786.99978 C 246.58839 789.9817 246.4347 791.99978 245.66056 791.99978 C 243.77389 791.99978 240.00275 781.3508 239.97892 775.95486 C 239.96352 772.47992 239.63814 771.83015 238.66642 773.33377 C 237.95555 774.43375 237.36515 776.51338 237.35392 777.95486 C 237.34272 779.39634 234.66373 783.2957 231.4008 786.62087 C 226.07536 792.04789 225.38294 793.48459 224.63908 800.6658 C 224.17168 805.17808 222.9083 809.53772 221.74064 810.6658 C 219.87398 812.46915 219.74724 811.78049 220.45353 803.64627 C 221.20564 794.98418 221.13185 794.67958 218.61759 796.02517 C 217.17745 796.79592 216.00041 798.04606 216.00041 798.80252 C 216.00041 800.99906 209.31038 809.16118 206.87736 809.93337 C 205.65732 810.3206 203.86964 811.90194 202.9047 813.44705 C 201.43395 815.80211 201.46789 816.61171 203.10978 818.46072 C 205.72841 821.40968 208.13115 830.42929 206.55705 831.40212 C 204.453 832.70249 202.66815 830.65725 202.64689 826.92166 C 202.62709 823.44622 200.61388 818.76431 199.68791 820.03884 C 199.43695 820.38427 197.96933 823.96647 196.42619 827.99978 C 194.88305 832.03311 192.68666 837.73246 191.54533 840.6658 L 189.47111 845.99978 L 189.40275 840.86892 C 189.33365 835.70701 190.55474 832.16806 197.07072 818.6658 C 199.01714 814.63246 200.81423 810.90612 201.06486 810.38455 C 201.31549 809.86299 198.47847 809.79769 194.76017 810.23806 C 181.25852 811.83714 188.98846 806.98001 203.62541 804.66775 C 208.02148 803.97328 209.82509 802.85047 211.87541 799.53298 C 215.34352 793.92143 220.99413 788.70434 223.62541 788.68337 C 224.78777 788.67437 225.88583 787.67972 226.06486 786.47244 C 226.45166 783.86418 225.42394 784.01657 216.66642 787.87673 C 206.02306 792.56816 204.83307 793.17212 201.66642 795.47634 C 199.11861 797.33027 198.66642 797.3625 198.66642 795.69119 C 198.66642 791.37622 205.94417 785.84996 210.83439 786.45291 C 212.30891 786.63472 228.57149 779.40425 231.34416 777.33377 C 232.8172 776.23377 235.48473 772.33244 237.26994 768.6658 C 239.05514 764.99913 241.98033 760.38173 243.77189 758.40408 L 247.0297 754.80837 L 243.57853 753.94314 C 241.63839 753.4562 237.32779 753.99384 233.73088 755.17166 C 230.21228 756.32377 223.43309 758.14859 218.66642 759.2283 C 210.004 761.19044 210.00147 761.19138 213.15861 758.58767 C 214.89588 757.15493 219.69523 755.0135 223.82463 753.82986 C 227.954 752.64621 232.09343 751.06839 233.02189 750.324 C 234.0114 749.53067 237.69303 749.32154 241.91838 749.81814 C 249.12344 750.66496 249.128 750.6633 253.98088 744.99978 L 258.83634 739.33377 L 246.75236 738.949 C 229.95928 738.41627 231.35944 735.99978 248.46134 735.99978 C 264.29793 735.99978 269.14576 734.31654 273.74455 727.21462 C 275.35225 724.73186 277.08158 722.69245 277.5883 722.68337 z "
       transform="translate(-11.113688,-15.468531)" />
    <path
       id="path3"
       style="fill:#800080"
       d="M 415.84025 32.488062 C 412.22721 32.293405 408.02076 33.755061 400.00041 36.699 L 390.00041 40.368922 L 375.33244 38.034937 C 338.22969 32.128902 334.92468 32.415715 325.6215 42.361109 C 311.79502 57.142055 303.61098 77.336465 303.61564 96.665797 C 303.61964 112.42224 305.16355 116.18381 321.03947 139.11111 C 335.45851 159.93446 342.66642 171.34707 342.66642 173.3533 C 342.66642 174.07562 343.86578 175.86711 345.33244 177.33377 C 347.33384 179.33516 349.77715 179.99978 355.12541 179.99978 L 362.25236 179.99978 L 363.07463 159.95486 C 363.52718 148.93036 364.30297 139.25394 364.79923 138.45095 C 366.76299 135.27352 368.21132 142.05335 369.29728 159.51345 C 369.91681 169.47445 371.02243 178.22298 371.75431 178.95486 C 375.10826 182.30881 382.69617 161.11169 386.85197 136.78103 C 388.34437 128.04361 390.15653 119.34294 390.87736 117.44705 C 392.06931 114.31205 392.30799 114.21672 393.52775 116.39627 C 396.14203 121.0676 391.54471 152.29115 384.75822 175.95291 C 380.87599 189.48866 385.3458 192.20267 392.66838 180.75564 C 395.21741 176.77085 397.90895 173.13405 398.6508 172.67556 C 400.67455 171.42481 400.28723 177.65359 398.00041 183.12673 C 395.67878 188.68316 395.44492 194.36605 397.33439 199.33572 L 398.66838 202.84744 L 403.00041 199.82205 C 405.38307 198.15841 419.03245 187.83986 433.33244 176.89236 C 447.63243 165.94487 462.21729 154.21621 465.74259 150.82791 C 474.7709 142.15045 480.7766 129.2724 483.54142 112.6658 C 487.36795 89.682148 483.28057 73.926959 470.35197 61.833765 C 464.42606 56.290771 461.11015 54.450111 444.01213 47.204859 C 440.71853 45.809205 433.56611 41.763768 428.11955 38.214625 C 422.47167 34.534294 419.45329 32.682719 415.84025 32.488062 z M 229.49259 86.945093 C 223.33685 87.047967 217.72512 88.214481 213.29533 90.503687 C 210.01576 92.198484 202.23373 98.546269 196.00041 104.61111 C 189.76707 110.67595 181.23328 117.82855 177.03752 120.50369 C 168.68135 125.83141 166.66642 128.51947 166.66642 134.34158 C 166.66642 141.678 162.59414 150.06271 152.60978 163.27908 C 147.09237 170.58251 142.23666 177.91482 141.82072 179.57205 C 141.35196 181.43971 142.1605 184.35806 143.94767 187.24978 C 147.8602 193.58036 162.01564 206.30586 171.47697 211.99978 C 178.66082 216.3231 179.871 216.62517 187.94767 216.11306 C 192.74263 215.80903 205.96578 215.53756 217.33244 215.50759 C 238.29047 215.45229 244.85334 216.42924 280.00041 224.84158 C 288.70599 226.92524 300.97961 226.25886 303.68205 223.55642 C 308.12736 219.11112 303.43352 214.65814 280.39884 201.46072 C 262.1353 190.99686 268.87069 190.44683 290.57072 200.63064 C 297.48456 203.87531 303.63392 206.22586 304.23673 205.8533 C 306.60122 204.39196 305.12412 199.87935 300.89689 195.65212 C 295.0626 189.81783 268.77598 176.92913 255.42423 173.35525 C 243.57255 170.18289 227.71388 163.19129 222.66642 158.91384 C 219.64802 156.35591 219.57902 156.08487 221.93205 156.0447 C 225.93344 155.9764 265.8711 170.27116 279.33244 176.58962 C 285.93243 179.68752 295.5331 185.61508 300.66642 189.7615 C 309.62491 196.99765 314.66642 199.1443 314.66642 195.72439 C 314.66642 194.83956 308.24517 187.96167 300.39689 180.43923 C 292.54861 172.9168 286.55335 166.3355 287.07463 165.81423 C 287.59589 165.29296 293.10794 168.4202 299.32267 172.76541 C 313.36436 182.58304 322.62503 187.92794 325.66642 187.96853 C 329.17858 188.01543 333.33244 183.14357 333.33244 178.9783 C 333.33244 174.24025 325.11503 160.20816 313.75041 145.54275 C 300.06055 127.87678 271.59994 100.16564 261.86173 95.019312 C 251.52401 89.556163 239.75217 86.773638 229.49259 86.945093 z M 511.88713 149.61892 C 510.24418 149.64759 508.62802 149.7202 507.059 149.83962 C 492.43655 150.95255 477.73344 155.79688 463.85197 164.07205 C 451.80784 171.25193 408.12365 204.20581 406.21916 207.54861 C 404.76237 210.10558 406.39881 221.79005 408.64298 224.85916 C 410.80686 227.81844 419.45896 227.71017 435.73283 224.52127 C 441.81896 223.32868 447.1277 222.68371 447.53166 223.08767 C 450.64457 226.20059 437.78603 231.76149 423.77775 233.35916 C 412.6325 234.6303 408.9986 236.19915 411.47111 238.67166 C 412.77557 239.97611 451.25834 245.33524 459.29533 245.33181 C 461.51601 245.33086 469.63245 243.7786 477.33244 241.88259 C 493.77176 237.83466 512.44439 236.15066 513.94572 238.57986 C 515.57756 241.22023 513.87006 241.79052 498.97306 243.58572 C 491.12299 244.53172 480.33532 246.60156 475.00041 248.18533 C 465.32361 251.05805 465.23668 251.05933 438.98283 248.86111 C 424.50879 247.64921 411.16578 246.68202 409.33244 246.71072 L 406.00041 246.76345 L 410.00041 250.12283 C 415.81428 255.00737 424.94464 259.39236 433.33244 261.32595 C 441.96937 263.31697 445.03507 265.18759 442.39689 266.86111 C 438.26989 269.47906 429.71526 267.85894 416.70939 261.99392 C 401.94292 255.33495 401.33244 255.17541 401.33244 257.95486 C 401.33244 259.02953 406.28244 263.17286 412.33244 267.16384 C 418.38243 271.15483 429.93374 280.58417 438.00041 288.11697 C 454.91174 303.90908 470.79955 314.77839 486.00041 320.95486 C 499.83138 326.57471 507.05381 326.63547 523.07072 321.26931 C 536.73488 316.6914 547.94961 311.07138 554.9672 305.28689 C 562.20154 299.32374 568.2088 289.2279 577.1547 267.99978 C 581.63577 257.36646 587.40972 245.5396 589.98478 241.71853 C 592.55984 237.89746 594.66642 234.42164 594.66642 233.99392 C 594.66642 233.5662 591.64808 229.59038 587.95939 225.15798 C 579.89097 215.46278 574.28844 204.73968 571.33439 193.33962 C 566.40849 174.32995 556.30191 160.2647 543.49455 154.59939 C 536.2099 151.37705 523.38773 149.41827 511.88713 149.61892 z M 223.68986 225.49392 C 220.337 225.43335 217.02128 225.45359 213.54142 225.5408 C 195.40578 225.9953 195.06287 226.06106 185.03166 231.02127 C 177.36675 234.81139 172.80015 238.28678 166.39689 245.20291 C 148.00204 265.07105 144.07259 283.58967 151.85392 313.73806 C 153.97308 321.94864 156.13359 333.02529 156.65666 338.3533 C 157.62895 348.257 159.98381 351.97946 165.29728 352.01345 C 170.44669 352.04635 181.54298 359.21928 191.64689 369.04666 C 199.27281 376.46387 204.1599 380.13266 207.64689 381.05837 C 214.43274 382.85987 230.75169 382.95464 241.33244 381.25369 C 246.0991 380.48741 252.99977 378.48563 256.66642 376.80642 C 264.22157 373.34642 280.64924 361.23606 292.96916 350.04275 C 300.47207 343.22595 301.53959 341.57915 304.07267 332.91775 C 308.17257 318.89888 320.02304 295.53219 329.22697 283.32009 L 337.25627 272.6658 L 329.22502 268.96462 C 324.80791 266.92832 320.70235 265.56622 320.10197 265.93728 C 319.50159 266.30833 318.66537 268.34093 318.24259 270.45486 C 317.28989 275.21837 305.99356 287.76187 297.72306 293.24002 C 285.75178 301.16947 286.35792 297.8559 299.26994 284.77517 C 304.73465 279.23906 311.71503 271.01363 314.78166 266.49783 L 320.35588 258.28884 L 316.51213 259.24392 C 305.41804 262.0034 281.00726 273.44268 258.00041 286.66189 C 238.96223 297.60077 230.77243 301.55218 228.22502 301.03298 C 226.39839 300.66068 226.6728 299.94919 229.75236 297.05837 C 235.03459 292.09988 247.88012 284.67417 280.434 267.75955 C 306.82653 254.04628 314.6698 249.33377 311.10197 249.33377 C 307.95331 249.33377 286.19046 256.18806 281.10783 258.78103 C 278.15649 260.28669 275.40396 261.18069 274.99064 260.76736 C 273.20059 258.97731 280.28683 253.88509 292.66642 248.06423 C 306.71691 241.45772 309.84449 238.98144 309.0922 235.06423 C 308.70464 233.04619 307.05225 232.61596 298.64884 232.35134 C 293.15818 232.17843 275.89327 230.47182 260.28166 228.55837 C 244.13857 226.57979 233.74845 225.67564 223.68986 225.49392 z M 392.02775 266.44314 C 389.47589 266.60649 387.06501 267.65206 384.33244 269.31814 C 377.36354 273.56716 377.8528 275.22162 393.25041 299.574 C 399.59071 309.60163 397.57409 311.44245 390.56486 302.02517 C 387.32122 297.66717 382.2277 291.56027 379.2465 288.45486 C 376.26531 285.34944 373.11798 281.25311 372.25236 279.3533 C 370.91785 276.42438 370.27231 276.11711 368.00627 277.32986 C 366.53641 278.1165 365.33244 279.8456 365.33244 281.17166 C 365.33244 285.86633 370.72966 299.14336 383.18009 325.07986 C 398.58683 357.17487 400.04327 361.42373 399.84416 373.71267 L 399.68791 383.33377 L 398.51994 376.31619 C 396.45533 363.92276 392.2035 353.33953 376.16056 320.6658 C 367.51891 303.06581 359.22142 285.96579 357.72306 282.6658 L 354.99845 276.6658 L 354.0297 291.33377 C 353.49633 299.40043 352.6439 308.09913 352.13517 310.6658 C 351.21053 315.33087 351.20806 315.32952 348.66056 306.6658 C 347.13787 301.48728 346.04509 293.43769 345.94572 286.6658 C 345.85422 280.43246 345.38062 275.48246 344.89103 275.6658 C 344.40144 275.84913 343.44335 275.99978 342.76213 275.99978 C 339.40548 275.99978 321.8955 309.09616 315.95744 326.6658 C 309.03349 347.15246 316.95004 376.30019 334.54728 395.11306 C 342.48078 403.59461 350.33518 407.4141 362.00041 408.46072 C 380.59841 410.12937 399.11923 416.87944 406.77775 424.78103 C 409.20442 427.28472 411.37135 429.33377 411.59416 429.33377 C 411.81697 429.33377 415.47001 425.88245 419.71134 421.6658 C 424.86572 416.54139 434.46944 409.8226 448.67423 401.40408 C 474.33393 386.19677 480.39993 380.64914 482.72502 370.25955 C 486.281 354.36973 479.57327 338.18508 464.82463 327.07009 C 460.33798 323.68884 445.26195 309.64495 431.32267 295.86111 C 408.61165 273.40334 399.68332 265.9531 392.02775 266.44314 z "
       transform="translate(-11.113688,-15.468531)" />
    <path
       style="fill:#ffff00"
       d="m 372.9462,265.51371 c 8.20572,-6.48625 19.63917,-19.24444 22.33235,-24.91989 2.79965,-5.89982 2.5798,-12.42392 -0.71545,-21.23127 -4.03519,-10.78499 -8.06826,-14.74462 -21.7214,-21.32586 -31.09511,-14.98879 -47.86073,-8.54546 -52.27481,20.09017 -1.05134,6.82041 1.45353,19.31002 5.46552,27.25178 4.43105,8.77128 12.97798,16.93306 22.39975,21.39033 11.4307,5.40765 16.4072,5.15282 24.51404,-1.25526 z"
       id="path4"
       transform="translate(-11.113688,-15.468531)" />
  </g>
</svg>
